<svg xmlns="http://www.w3.org/2000/svg" width="31.164" height="31.164" viewBox="0 0 31.164 31.164">
  <g id="Group_4" data-name="Group 4" transform="translate(0 0)">
    <g id="Group_22" data-name="Group 22">
      <g id="Group_17" data-name="Group 17">
        <g id="Group_16" data-name="Group 16">
          <path id="Path_26" data-name="Path 26" d="M2842.426,3803.523h-11.687a9.739,9.739,0,0,0-9.738,9.738v11.686a9.74,9.74,0,0,0,9.738,9.739h11.687a9.74,9.74,0,0,0,9.739-9.739v-11.686A9.74,9.74,0,0,0,2842.426,3803.523Zm6.817,21.424a6.825,6.825,0,0,1-6.817,6.817h-11.687a6.825,6.825,0,0,1-6.817-6.817v-11.686a6.824,6.824,0,0,1,6.817-6.817h11.687a6.825,6.825,0,0,1,6.817,6.817Z" transform="translate(-2821 -3803.523)" fill="#ffbc3d"/>
        </g>
      </g>
      <g id="Group_19" data-name="Group 19" transform="translate(7.791 7.791)">
        <g id="Group_18" data-name="Group 18">
          <path id="Path_27" data-name="Path 27" d="M2956.792,3931.523a7.791,7.791,0,1,0,7.791,7.792A7.792,7.792,0,0,0,2956.792,3931.523Zm0,12.661a4.87,4.87,0,1,1,4.87-4.87A4.876,4.876,0,0,1,2956.792,3944.184Z" transform="translate(-2949 -3931.523)" fill="#ffbc3d"/>
        </g>
      </g>
      <g id="Group_21" data-name="Group 21" transform="translate(22.919 6.169)">
        <g id="Group_20" data-name="Group 20">
          <ellipse id="Ellipse_1" data-name="Ellipse 1" cx="1.038" cy="1.038" rx="1.038" ry="1.038" fill="#ffbc3d"/>
        </g>
      </g>
    </g>
  </g>
</svg>
