<svg id="Group_5" data-name="Group 5" xmlns="http://www.w3.org/2000/svg" width="36.112" height="36.164" viewBox="0 0 36.112 36.164">
  <g id="Group_32" data-name="Group 32" transform="translate(0 0)">
    <path id="Path_34" data-name="Path 34" d="M1153.565,3567.33a3.557,3.557,0,0,0-2.58-1.184,3.678,3.678,0,0,0-2.61,1.176l-2.412,2.4c-.2-.107-.4-.206-.588-.305-.275-.137-.535-.268-.756-.4a26.23,26.23,0,0,1-6.281-5.724,15.472,15.472,0,0,1-2.061-3.251c.626-.573,1.206-1.168,1.771-1.74.214-.214.428-.435.641-.649a3.5,3.5,0,0,0,0-5.281l-2.084-2.084c-.237-.237-.481-.481-.71-.726-.458-.473-.939-.961-1.435-1.419a3.614,3.614,0,0,0-2.557-1.122,3.74,3.74,0,0,0-2.6,1.122l-.015.015-2.595,2.618a5.583,5.583,0,0,0-1.656,3.549,13.374,13.374,0,0,0,.977,5.664,32.869,32.869,0,0,0,5.839,9.739,35.915,35.915,0,0,0,11.961,9.365,18.637,18.637,0,0,0,6.717,1.985c.16.008.328.015.481.015a5.752,5.752,0,0,0,4.4-1.893c.008-.015.023-.023.03-.038a17.327,17.327,0,0,1,1.336-1.381c.328-.313.664-.641.992-.985a3.808,3.808,0,0,0,1.152-2.641,3.669,3.669,0,0,0-1.175-2.618Zm2.733,8.037c-.008,0-.008.007,0,0-.3.32-.6.611-.931.931a20.184,20.184,0,0,0-1.473,1.526,3.679,3.679,0,0,1-2.87,1.214c-.114,0-.237,0-.351-.008a16.566,16.566,0,0,1-5.954-1.786,33.913,33.913,0,0,1-11.266-8.824,30.986,30.986,0,0,1-5.5-9.152,10.9,10.9,0,0,1-.855-4.778,3.5,3.5,0,0,1,1.054-2.267l2.6-2.6a1.734,1.734,0,0,1,1.16-.542,1.629,1.629,0,0,1,1.114.534l.023.022c.466.435.908.885,1.374,1.366.237.244.481.489.725.74l2.084,2.083a1.457,1.457,0,0,1,0,2.366c-.221.221-.435.443-.656.657-.641.656-1.252,1.267-1.916,1.862-.015.016-.03.023-.038.039a1.556,1.556,0,0,0-.4,1.733l.023.069a16.731,16.731,0,0,0,2.465,4.022l.008.008a28.03,28.03,0,0,0,6.778,6.167,10.587,10.587,0,0,0,.939.511c.275.137.534.267.756.4.031.015.061.038.092.053a1.649,1.649,0,0,0,.756.191,1.63,1.63,0,0,0,1.16-.527l2.611-2.61a1.726,1.726,0,0,1,1.152-.573,1.555,1.555,0,0,1,1.1.558l.015.015,4.206,4.206A1.509,1.509,0,0,1,1156.3,3575.367Z" transform="translate(-1125.01 -3544.927)" fill="#ffbc3d"/>
    <path id="Path_35" data-name="Path 35" d="M1370.457,3607.583a9.824,9.824,0,0,1,8,8,1.024,1.024,0,0,0,1.015.855,1.468,1.468,0,0,0,.175-.015,1.031,1.031,0,0,0,.847-1.191,11.877,11.877,0,0,0-9.678-9.678,1.035,1.035,0,0,0-1.191.84A1.019,1.019,0,0,0,1370.457,3607.583Z" transform="translate(-1350.939 -3598.98)" fill="#ffbc3d"/>
    <path id="Path_36" data-name="Path 36" d="M1390.574,3535.566a19.56,19.56,0,0,0-15.937-15.937,1.029,1.029,0,1,0-.336,2.03,17.469,17.469,0,0,1,14.243,14.243,1.024,1.024,0,0,0,1.015.855,1.347,1.347,0,0,0,.176-.016A1.011,1.011,0,0,0,1390.574,3535.566Z" transform="translate(-1354.478 -3519.613)" fill="#ffbc3d"/>
  </g>
</svg>
