<svg xmlns="http://www.w3.org/2000/svg" width="30.728" height="30.727" viewBox="0 0 30.728 30.727">
  <g id="Group_3" data-name="Group 3" transform="translate(0 0)">
    <g id="Group_14" data-name="Group 14">
      <g id="Group_13" data-name="Group 13">
        <path id="Path_25" data-name="Path 25" d="M1742.375,3547.523h-23.526a3.6,3.6,0,0,0-3.6,3.6v23.527a3.6,3.6,0,0,0,3.6,3.6h23.526a3.6,3.6,0,0,0,3.6-3.6v-23.527A3.605,3.605,0,0,0,1742.375,3547.523Zm1.2,27.127a1.2,1.2,0,0,1-1.2,1.2h-6.842v-9.783h3.708l.613-3.721h-4.321v-2.581a1.77,1.77,0,0,1,1.8-1.8h2.46v-3.721h-2.46a5.52,5.52,0,0,0-5.52,5.532v2.571h-3.6v3.721h3.6v9.783h-12.965a1.2,1.2,0,0,1-1.2-1.2v-23.527a1.2,1.2,0,0,1,1.2-1.2h23.526a1.2,1.2,0,0,1,1.2,1.2Z" transform="translate(-1715.248 -3547.523)" fill="#ffbc3d"/>
      </g>
    </g>
  </g>
</svg>
